# xmcd
#
# Track frame offsets:
#	150
#	14269
#	35059
#	48102
#	60228
#	81074
#	95662
#	110376
#	129699
#	148185
#	166522
#	180996
#
# Disc length: 2693 seconds
#
# Revision: 1
# Processed by: cddbd v1.5PL3 Copyright (c) Steve Scherf et al.
# Submitted via: audiograbber 1.82.02
#
DISCID=910a830c
DTITLE=Kenny Rogers  - Back To The Well 
DYEAR=2003
DGENRE=Country
TTITLE0=Back To The Well
TTITLE1=Listen To The Rain
TTITLE2=727 East Magnolia Avenue
TTITLE3=Undercover
TTITLE4=Prairie Wedding
TTITLE5=I'm Missing You 
TTITLE6=It's A Beautiful Life 
TTITLE7=Tears In God's Eyes
TTITLE8=Harder Cards
TTITLE9=Handprints On The Wall
TTITLE10=Owe Them More Than That
TTITLE11=Love Like This
EXTD=
EXTT0=
EXTT1=
EXTT2=
EXTT3=
EXTT4=
EXTT5=
EXTT6=
EXTT7=
EXTT8=
EXTT9=
EXTT10=
EXTT11=
PLAYORDER=
